<?xml version="1.0" encoding="UTF-8" standalone="no"?>
<!-- Created with Inkscape (http://www.inkscape.org/) -->

<svg
   version="1.1"
   id="svg1"
   width="625.07715"
   height="459.23682"
   viewBox="0 0 625.07715 459.23682"
   xml:space="preserve"
   xmlns="http://www.w3.org/2000/svg"
   xmlns:svg="http://www.w3.org/2000/svg"><defs
     id="defs1" /><g
     id="g1"
     transform="translate(-498.03723,-445.56732)"><path
       style="fill:#fab387;fill-opacity:1"
       d="m 671.14914,724.84108 c -2.03057,25.47621 -6.84079,50.72991 -14.31784,75.1687 -4.13575,13.51774 -9.21503,27.02514 -17.89731,38.18093 -7.02515,9.02656 -16.49476,16.37384 -27.44255,19.68704 -7.80603,2.36239 -16.12198,2.62953 -24.24095,1.85663 -8.11896,-0.77289 -16.10176,-2.55945 -24.08179,-4.24294 -9.98456,-2.10637 -20.33972,-4.19999 -28.63569,-10.14181 -4.70896,-3.3727 -8.52716,-7.842 -11.93154,-12.52811 -4.31294,-5.93673 -8.0315,-12.27811 -11.93154,-18.49389 -2.08555,-3.3239 -4.22946,-6.62285 -5.96577,-10.14181 -2.14729,-4.35189 -3.64963,-9.00019 -4.77262,-13.72127 -2.08834,-8.77942 -2.87471,-17.97964 -1.19315,-26.84597 1.57009,-8.27861 5.23674,-16.02512 9.54523,-23.2665 8.5266,-14.33086 19.60375,-26.95225 29.23227,-40.56724 7.77169,-10.98939 14.6038,-22.63318 22.66993,-33.40831 17.11942,-22.86896 40.73766,-42.04583 68.60636,-48.32274 18.66157,-4.20317 38.45643,-2.52013 56.67481,-8.35208 18.92236,-6.0573 34.5506,-19.71585 53.09536,-26.84596 14.37257,-5.52598 29.96371,-6.92994 45.33985,-7.7555 13.76678,-0.73915 27.57171,-1.05757 41.33855,-0.31949 20.27501,1.08701 40.5365,4.5028 59.55534,11.61205 7.03002,2.62783 13.87392,5.75343 20.4635,9.34566 l 9.29298,0.24197 c 12.44566,0.48559 24.96368,-0.92774 36.98777,-4.17604 13.73742,-3.71116 26.70723,-9.75974 39.97066,-14.91442 12.6485,-4.91568 25.8124,-9.06941 39.3741,-9.54524 12.6896,-0.44523 25.253,2.34214 37.5843,5.3692 13.0298,3.19852 26.5532,6.98509 36.3912,16.10758 6.7485,6.25767 11.2627,14.65515 13.9352,23.46184 2.6725,8.8067 3.5956,18.05123 3.9621,27.2472 0.6896,17.30228 -0.8124,35.52454 -10.1418,50.11247 -8.243,12.88926 -21.6694,21.49037 -35.198,28.6357 -14.0433,7.41715 -28.954,13.80061 -44.7433,15.511 -16.338,1.76981 -33.37135,-1.75103 -47.12957,-10.73838 -8.55756,-5.5901 -15.77377,-13.21867 -20.88019,-22.07335 l 17.58403,17.3669 52.21543,26.7798 c 14.2789,3.87424 26.3071,15.20855 31.0221,29.23227 2.6979,8.02439 3.0902,16.70612 1.9848,25.09943 -1.1054,8.3933 -3.6679,16.53457 -6.7575,24.41646 -4.662,11.89345 -10.5929,23.37024 -18.4939,33.40831 -9.8751,12.5461 -22.7247,22.6534 -36.9877,29.82886 -17.41271,8.76 -36.72983,13.14913 -56.07826,15.511 -14.83563,1.81099 -29.79778,2.47477 -44.74328,2.38631 -19.9356,-0.11799 -40.09386,-1.61675 -59.06113,-7.75551 -14.10828,-4.56614 -27.51551,-11.77081 -38.18092,-22.07334 -2.83313,-2.73673 -5.4724,-5.68795 -8.5363,-8.16359 -3.0639,-2.47564 -6.64359,-4.4882 -10.55417,-4.96111 -3.59309,-0.43452 -7.19656,0.44847 -10.73839,1.19315 -23.74131,4.99165 -49.08409,3.80871 -71.4635,-5.55762 -22.37941,-9.36633 -41.49769,-27.29287 -50.23821,-49.92404 -5.33386,-13.81057 -6.74295,-29.11248 -4.02092,-43.66488 2.72203,-14.55241 9.56679,-28.31043 19.53192,-39.25932 z"
       id="path1"
       transform="translate(0.21092183,-0.21092183)" /><path
       style="fill:#1e1e2e;fill-opacity:1"
       d="m 972.12225,806.87042 c 14.30897,-5.65094 30.06195,-9.47151 45.04155,-5.96577 4.0369,0.94476 7.9893,2.43186 11.3983,4.79143 3.409,2.35957 6.2566,5.63695 7.6922,9.52642 1.6688,4.52142 1.3339,9.62725 -0.2981,14.1621 -1.6319,4.53485 -4.4862,8.54633 -7.7557,12.08728 -7.2623,7.86515 -16.6902,13.61709 -26.846,17.00245 -7.24108,2.41376 -14.92798,3.65721 -22.53835,3.07262 -7.61037,-0.58459 -15.14266,-3.04997 -21.31004,-7.54695 -3.37617,-2.46175 -6.34217,-5.53856 -8.40649,-9.17137 -2.06433,-3.63281 -3.19852,-7.83748 -2.92847,-12.00711 0.20905,-3.22784 1.2507,-6.37825 2.85387,-9.18761 1.60318,-2.80936 3.75841,-5.28434 6.20591,-7.39915 4.89499,-4.22962 10.87433,-6.98809 16.89132,-9.36434 z"
       id="path3" /><ellipse
       style="fill:#ffffff;fill-opacity:1"
       id="path4"
       cx="762.82831"
       cy="751.15289"
       rx="48.933865"
       ry="53.36322" /><rect
       style="fill:#ffffff;fill-opacity:1;stroke-width:0.994971"
       id="rect4"
       width="97.836304"
       height="57.140133"
       x="713.91449"
       y="695.06964" /><ellipse
       style="fill:#1e1e2e;fill-opacity:1;stroke-width:0.772733"
       id="path4-6"
       cx="762.7984"
       cy="738.40448"
       rx="37.81282"
       ry="41.235531" /><rect
       style="fill:#1e1e2e;fill-opacity:1;stroke-width:0.768846"
       id="rect4-1"
       width="75.601349"
       height="44.154072"
       x="725.0011"
       y="695.06708" /><rect
       style="fill:#1e1e2e;fill-opacity:1"
       id="rect5"
       width="124.5"
       height="19"
       x="702.18158"
       y="678.2301" /><ellipse
       style="fill:#ffffff;fill-opacity:1;stroke-width:0.844098"
       id="path4-0"
       cx="924.45038"
       cy="735.11871"
       rx="41.304996"
       ry="45.043808" /><rect
       style="fill:#ffffff;fill-opacity:1;stroke-width:0.839853"
       id="rect4-2"
       width="82.583466"
       height="48.231892"
       x="883.16229"
       y="687.77893" /><ellipse
       style="fill:#1e1e2e;fill-opacity:1;stroke-width:0.652263"
       id="path4-6-3"
       cx="924.42511"
       cy="724.35779"
       rx="31.91774"
       ry="34.806843" /><rect
       style="fill:#1e1e2e;fill-opacity:1;stroke-width:0.648982"
       id="rect4-1-7"
       width="63.814976"
       height="37.270378"
       x="892.52051"
       y="687.77679" /><rect
       style="fill:#1e1e2e;fill-opacity:1;stroke-width:0.844098"
       id="rect5-5"
       width="105.09025"
       height="16.037868"
       x="873.25854"
       y="673.87653" /><path
       style="fill:#cdd6f4;fill-opacity:1"
       d="M 947.04235,569.34272 927.5,512 c -9.96077,-18.06651 -24.78971,-33.41882 -42.5,-44 -12.41612,-7.41813 -26.10747,-12.47678 -40,-16.5 -13.76423,-3.98606 -27.81102,-6.99609 -42,-9 v -34 h -17 l -1.5,32.5 c -20.04169,1.03982 -39.90419,5.45371 -58.5,13 -15.53573,6.30449 -30.36509,14.92795 -42,27 -9.88848,10.26 -17.28705,22.88748 -21.5,36.5 -4.48628,14.49568 -5.353,30.09658 -2.5,45 40.69695,16.31081 82.96937,28.68799 126.03674,36.903 37.1797,7.09195 76.3759,10.95051 112.27913,-1.03213 18.07261,-6.0317 34.81757,-16.00729 48.72648,-29.02815 z"
       id="path6"
       transform="translate(2.2352814,46.817334)" /><path
       style="fill:#f38ba8;fill-opacity:1"
       d="m 794.78802,442.64884 c -3.73035,-0.68475 -7.52109,-1.04013 -11.31371,-1.06066 -11.78514,-0.0638 -23.32822,3.0851 -34.64823,6.36396 -17.32857,5.01925 -34.8213,10.52715 -49.85103,20.5061 -13.95353,9.26441 -25.42387,22.30837 -32.52691,37.47666 -8.14018,17.38306 -10.41215,37.45212 -6.36396,56.21499 l 21.2132,9.54594 c 1.34452,-14.79611 5.31374,-29.34994 11.66726,-42.77996 5.31979,-11.24492 12.31716,-21.71623 20.85965,-30.75914 12.87416,-13.62833 28.94172,-23.75052 44.90128,-33.58758 11.97532,-7.38128 23.99644,-14.68823 36.06245,-21.92031 z"
       id="path8"
       transform="translate(2.2352814,46.817334)" /><path
       style="fill:#89b4fa;fill-opacity:1"
       d="m 794,442.75 c -7.89173,4.7088 -15.80854,9.37556 -23.75,14 -15.10013,8.79306 -30.38183,17.49727 -43.75,28.75 -9.7867,8.23801 -18.47797,17.80722 -25.5,28.5 -9.67456,14.73191 -16.12061,31.57265 -18.75,49 -0.43806,2.90342 -0.77168,5.82261 -1,8.75 5.34204,1.61526 10.76857,2.95102 16.25,4 13.40278,2.56489 27.1342,3.40731 40.75,2.5 -1.80697,-14.84579 -0.78324,-30.03108 3,-44.5 5.27573,-20.17688 15.74799,-38.60334 27.25,-56 7.96374,-12.04507 16.47545,-23.72781 25.5,-35 z"
       id="path9"
       transform="translate(2.2352814,46.817334)" /><path
       style="fill:#a6e3a1;fill-opacity:1"
       d="m 793.72736,442.29529 c -10.03849,13.56936 -19.93867,27.24104 -29.69849,41.01219 -8.94305,12.6187 -17.85743,25.4874 -23.33452,39.95154 -6.66402,17.59863 -7.91289,37.20598 -3.53553,55.50788 19.73504,-3.15308 39.54064,-5.86456 59.39697,-8.13173 17.04825,-1.94654 34.13718,-3.56582 51.26524,-4.59619 21.89065,-1.31687 43.8392,-1.67088 65.76093,-1.06066 -3.65847,-15.76863 -10.02543,-30.90517 -18.73833,-44.54773 -10.14408,-15.88349 -23.36828,-29.63459 -37.83021,-41.7193 -12.41818,-10.37691 -25.83832,-19.6172 -40.30509,-26.87006 -7.42144,-3.72071 -15.10753,-6.91339 -22.98097,-9.54594 z"
       id="path10"
       transform="translate(2.2352814,46.817334)" /><path
       style="fill:#f9e2af;fill-opacity:1"
       d="m 795.14157,441.94174 c 15.99383,1.4841 31.86145,4.32606 47.37616,8.48528 23.13225,6.20134 45.97418,15.64915 63.63961,31.8198 14.60972,13.37351 25.08236,30.87219 31.8198,49.49748 4.32867,11.96638 7.18537,24.46443 8.48528,37.1231 L 907.218,564.97832 C 906.77487,549.40354 902.08319,533.97037 893.78297,520.78414 886.42402,509.09326 876.42352,499.32173 866.2058,490.025 854.47321,479.34994 842.28844,469.11394 829.0827,460.32651 818.356,453.1887 806.98018,447.0268 795.14157,441.94174 Z"
       id="path11"
       transform="translate(2.2352814,46.817334)" /><ellipse
       style="fill:#cdd6f4;fill-opacity:1"
       id="path12"
       cx="796.67279"
       cy="453.37982"
       rx="12.3125"
       ry="4.3125" /><ellipse
       style="fill:#cdd6f4;fill-opacity:1"
       id="path13"
       cx="723.87805"
       cy="452.94232"
       rx="57.125"
       ry="7.375" /><ellipse
       style="fill:#cdd6f4;fill-opacity:1"
       id="path13-3"
       cx="868.09357"
       cy="453.61694"
       rx="57.125"
       ry="7.375" /></g></svg>
